<?xml version="1.0" encoding="UTF-8" standalone="no"?>
<!-- Created with Inkscape (http://www.inkscape.org/) -->

<svg
   width="210mm"
   height="297mm"
   viewBox="0 0 210 297"
   version="1.1"
   id="svg5"
   xml:space="preserve"
   inkscape:version="1.2.2 (732a01da63, 2022-12-09)"
   sodipodi:docname="kresba-3.svg"
   xmlns:inkscape="http://www.inkscape.org/namespaces/inkscape"
   xmlns:sodipodi="http://sodipodi.sourceforge.net/DTD/sodipodi-0.dtd"
   xmlns="http://www.w3.org/2000/svg"
   xmlns:svg="http://www.w3.org/2000/svg"><sodipodi:namedview
     id="namedview7"
     pagecolor="#ffffff"
     bordercolor="#000000"
     borderopacity="0.25"
     inkscape:showpageshadow="2"
     inkscape:pageopacity="0.0"
     inkscape:pagecheckerboard="0"
     inkscape:deskcolor="#d1d1d1"
     inkscape:document-units="mm"
     showgrid="false"
     inkscape:zoom="0.58781078"
     inkscape:cx="488.25236"
     inkscape:cy="487.40174"
     inkscape:window-width="1920"
     inkscape:window-height="1001"
     inkscape:window-x="-9"
     inkscape:window-y="-9"
     inkscape:window-maximized="1"
     inkscape:current-layer="layer1" /><defs
     id="defs2" /><g
     inkscape:label="Vrstva 1"
     inkscape:groupmode="layer"
     id="layer1"><path
       style="fill:none;stroke-width:0.264583;fill-opacity:1"
       d="m 60.599245,40.787954 c 67.203005,-0.388458 67.203005,0 67.203005,0 L 97.114176,89.733497"
       id="path1026" /><path
       style="fill:#808080;fill-opacity:1;stroke-width:0.264583"
       d="M 106.15194,37.478591 132.85824,5.3861448"
       id="path3033" /><g
       id="g3048"
       transform="translate(-124.71333,8.0021546)"><g
         id="g3042"><g
           id="g3038"><path
             style="fill:#000000;fill-opacity:1;stroke-width:0.264583"
             d="m 221.30145,50.250151 c 1.69954,-0.526584 0.90685,-0.224651 9.80973,-4.081598 23.38866,-10.132551 35.29088,-2.981882 46.45888,9.814646 -14.56869,7.699212 -15.83249,18.595008 -15.62502,26.834524 0.35669,14.166223 12.91113,24.293827 18.80777,27.373817 -2.14646,9.56686 -6.30846,16.80921 -10.10684,22.70201 -2.53109,3.92672 -4.44702,7.59445 -7.15883,9.70544 -2.23987,1.74361 -7.55579,5.02376 -8.63692,4.72622 -4.90249,3.21721 -16.72537,-4.22184 -24.98025,-6.18375 -6.09176,-1.60687 -9.46803,-0.0782 -14.84021,2.08226 -3.40204,1.36816 -6.05213,3.9683 -10.66232,2.77351 -5.15456,0.34491 -12.74726,-2.02239 -18.2057,-10.05954 -7.04776,-10.3773 -12.10245,-26.46541 -14.70279,-38.538236 -2.4115,-10.507961 -2.61341,-34.753043 12.03717,-47.495963 3.34383,-2.892224 6.70536,-5.410728 11.33173,-6.864361 2.19088,-0.688387 7.236,-1.402784 8.67932,-1.769702 4.513,-1.147287 10.87855,1.34695 16.62919,4.442284 0.8113,0.436692 3.48174,1.745289 6.15176,1.748699 2.84076,0.0036 5.65754,-1.329097 5.42522,-1.906908 -0.12412,-0.308706 -0.90781,11.6942 -5.66308,7.283134 -12.9374,-12.000949 8.06691,1.379744 8.90816,1.177503 1.64191,-0.394725 -32.6057,-4.965307 -30.30532,-9.660213 2.39331,0.380329 -2.45388,-2.320736 0.97124,-1.603748 4.46882,0.935465 32.2238,14.119607 29.81489,15.41553"
             id="path3031"
             sodipodi:nodetypes="cscscssccscsccssssssscsc" /></g></g><path
         style="fill:#000000;fill-opacity:1;stroke-width:0.264583"
         d="M 219.48541,32.31687 C 219.89011,12.58583 231.12286,4.5490828 246.41613,0.89769073 246.8377,7.3402331 247.95105,13.552182 239.68345,22.891115 226.25284,36.303198 218.3299,32.308229 219.48541,32.31687 Z"
         id="path3035"
         sodipodi:nodetypes="cccc" /></g><g
       id="g3062"
       transform="translate(-141.42314,123.97247)"><path
         style="fill:#0000ff;fill-opacity:1;stroke-width:0.264583"
         d="m 297.7687,71.314806 c 1.63646,21.12715 -6.46436,36.736514 -16.31073,51.356724 -26.95109,40.18129 -77.69375,34.43264 -102.93387,18.29446 16.68041,0.23538 29.6061,-3.90975 39.2339,-11.90242 -11.33453,-1.58014 -21.14834,-7.57032 -24.90692,-20.80577 1.98956,-0.16406 5.61207,0.4087 7.64956,0.26863 1.90248,-0.13081 3.67278,-0.32771 5.02503,-0.73363 -18.10273,-5.34273 -21.53418,-18.935018 -22.23776,-27.368449 l 8.51466,4.556427 4.2387,1.326392 c -15.68031,-12.164866 -13.50542,-28.909256 -8.36923,-37.92834 14.3532,17.284234 31.12261,23.919436 56.16687,26.404579 -1.36887,-8.957697 0.0891,-15.934275 5.82767,-22.182975 9.93345,-10.816434 28.62838,-13.301406 40.82842,0.199498 l 16.97196,-6.83287 c -1.94783,5.693595 -5.36926,10.56853 -10.80034,14.326986 l 13.88616,-3.085812 c -2.74811,5.30749 -8.29026,9.497363 -12.78408,14.10657 z"
         id="path3059"
         sodipodi:nodetypes="cccccsccccccsccccc" /></g></g></svg>
