<?xml version="1.0" encoding="UTF-8" standalone="no"?>
<!-- Created with Inkscape (http://www.inkscape.org/) -->

<svg
   width="210mm"
   height="297mm"
   viewBox="0 0 210 297"
   version="1.1"
   id="svg5"
   xml:space="preserve"
   inkscape:version="1.2.2 (732a01da63, 2022-12-09)"
   sodipodi:docname="kresbazirafa.svg"
   xmlns:inkscape="http://www.inkscape.org/namespaces/inkscape"
   xmlns:sodipodi="http://sodipodi.sourceforge.net/DTD/sodipodi-0.dtd"
   xmlns="http://www.w3.org/2000/svg"
   xmlns:svg="http://www.w3.org/2000/svg"><sodipodi:namedview
     id="namedview7"
     pagecolor="#ffffff"
     bordercolor="#000000"
     borderopacity="0.25"
     inkscape:showpageshadow="2"
     inkscape:pageopacity="0.0"
     inkscape:pagecheckerboard="0"
     inkscape:deskcolor="#d1d1d1"
     inkscape:document-units="mm"
     showgrid="false"
     inkscape:zoom="0.72515432"
     inkscape:cx="397.84635"
     inkscape:cy="566.0864"
     inkscape:window-width="1920"
     inkscape:window-height="1001"
     inkscape:window-x="-9"
     inkscape:window-y="-9"
     inkscape:window-maximized="1"
     inkscape:current-layer="layer1" /><defs
     id="defs2" /><g
     inkscape:label="Vrstva 1"
     inkscape:groupmode="layer"
     id="layer1"><g
       id="g12837"
       transform="matrix(0.95166352,0,0,0.95869924,-204.58174,-5.1093848)"><path
         style="fill:#e99800;fill-opacity:1;fill-rule:evenodd;stroke:#000000;stroke-width:2.1;stroke-dasharray:none;stroke-opacity:1;paint-order:markers fill stroke"
         d="m 335.2449,260.57074 -3.64865,-4.92567 -1.82432,-16.23649 0.72973,-20.06757 1.64189,-2.00675 0.72973,-14.0473 2.00676,-15.14189 c 0,0 3.10135,-10.39865 3.28378,-11.12838 0.18243,-0.72973 4.19595,-9.85135 4.19595,-9.85135 l 3.28378,-9.85135 c -0.66811,-2.55324 -0.83099,-5.87829 -1.7331,-8.66554 l -2.46284,-4.10473 3.37499,-6.20271 8.11825,-11.8581 7.47973,-19.88514 3.83108,-14.95946 2.73648,-14.047298 2.55406,-2.554052 5.10811,0.18243 7.47973,2.006759 6.2027,4.013512 4.74324,3.101351 2.55406,0.364865 v -4.56081 l -3.83108,-6.202704 -4.74325,-5.837836 -1.82432,-4.37838 -0.5473,-4.195945 3.46622,-2.189189 -1.82433,-1.45946 -4.37838,0.364865 -1.45945,-2.91892 -1.45946,-2.554052 -3.83109,-0.182433 -2.91891,4.925677 -4.74325,1.277024 -6.93243,8.027027 -8.75676,13.500002 -4.37838,9.668918 -7.11486,11.31081 -6.56757,11.128389 -7.29729,3.10135 -8.39189,7.29729 -6.02027,6.56757 -9.81392,5.64358 -9.15894,1.80599 -10.44894,2.06399 -6.19196,2.96698 -9.81192,11.41811 -1.86753,6.96973 0.0695,7.928 v 5.15997 c 0,0.516 -0.645,11.35193 -0.645,11.35193 l -1.41899,5.93396 -1.28999,2.96699 3.09598,0.38699 1.03199,-5.03097 c 0,0 -0.25799,-4.51497 -0.25799,-5.67596 0,-1.16099 0.77399,-9.80394 0.64499,-10.31994 -0.129,-0.516 0.387,-8.38495 0.387,-8.38495 l 2.32199,11.35193 1.67698,6.57896 -0.64499,5.67597 -2.83798,6.19196 -3.86998,4.77297 -2.96698,4.38598 -0.54388,3.57405 1.45946,5.29054 0.54729,4.74324 -0.54729,10.58108 -2.00676,21.70946 1.64189,3.28378 1.09459,4.01352 -1.82432,2.18919 9.30406,-0.5473 -3.46622,-5.83784 0.18243,-12.77027 1.27703,-16.05405 -1.27703,-6.56757 2.73649,-5.47297 1.82433,1.82432 2.73648,6.75 4.01352,20.43243 v 10.76352 l 4.56081,6.38513 c 0,0 -0.91217,2.55405 -0.18244,2.37162 0.72973,-0.18243 7.47973,-1.27702 7.47973,-1.27702 l -4.19594,-9.12162 -2.37163,-10.03379 -2.55405,-17.33108 c 0,0 1.27703,-13.86486 1.27703,-14.95946 0,-1.09459 2.73648,-13.13513 2.73648,-13.13513 l 6.75,-14.77703 1.82433,-2.37162 c 0,0 3.64865,2.91891 5.10811,2.91891 1.45946,0 8.75675,1.6419 9.48648,1.6419 0.72973,0 10.58108,-2.18919 10.58108,-2.18919 l 6.02027,1.45946 -0.18243,11.12838 0.36486,15.14189 -1.64189,6.56757 1.82432,5.29053 0.18244,10.21622 v 18.97297 l -0.72973,4.37838 2.55405,4.92568 -2.18919,4.37838 z"
         id="path1636"
         sodipodi:nodetypes="cccccccscccccccccccccccccccccccccccccccccccccccccccscccccssccccccccccccccccccccccccccsccccscccsscccccccccccc" /><path
         style="fill:#fffbed;fill-opacity:1;fill-rule:evenodd;stroke:#000000;stroke-width:1.728;stroke-dasharray:none;stroke-opacity:1;paint-order:markers fill stroke"
         d="m 323.01401,203.73373 10.06195,-2.17247 -0.6708,13.75895 -7.71415,2.17245 -3.35399,-7.60361 z"
         id="path8925" /><path
         style="fill:#fffbed;fill-opacity:1;fill-rule:evenodd;stroke:#000000;stroke-width:1.153;stroke-dasharray:none;stroke-opacity:1;paint-order:markers fill stroke"
         d="m 323.80412,216.17085 c 0,1.37168 0,28.80547 0,28.80547 l -0.79928,5.7611 3.19714,4.93808 -2.6643,4.38941 11.98926,0.82302 -3.72999,-5.21243 -1.865,-19.20365 1.59859,-20.84969 z"
         id="path8981" /><ellipse
         style="fill:#a05a2c;fill-opacity:1;fill-rule:evenodd;stroke:#efefef;stroke-width:0;stroke-dasharray:none;stroke-opacity:1;paint-order:markers fill stroke"
         id="path12278"
         cx="290.97977"
         cy="143.39188"
         rx="6.2027025"
         ry="6.3851347" /><ellipse
         style="fill:#a05a2c;fill-opacity:1;fill-rule:evenodd;stroke:#efefef;stroke-width:0;stroke-dasharray:none;stroke-opacity:1;paint-order:markers fill stroke"
         id="path12278-7"
         cx="275.29056"
         cy="154.88515"
         rx="6.3851347"
         ry="5.655405" /><circle
         style="fill:#a05a2c;fill-opacity:1;fill-rule:evenodd;stroke:#efefef;stroke-width:0;stroke-dasharray:none;stroke-opacity:1;paint-order:markers fill stroke"
         id="path12278-5"
         cx="289.33783"
         cy="166.01352"
         r="8.3918915" /><ellipse
         style="fill:#a05a2c;fill-opacity:1;fill-rule:evenodd;stroke:#efefef;stroke-width:0;stroke-dasharray:none;stroke-opacity:1;paint-order:markers fill stroke"
         id="path12278-6"
         cx="275.54233"
         cy="176.27742"
         rx="4.6509147"
         ry="3.8124197" /><circle
         style="fill:#a05a2c;fill-opacity:1;fill-rule:evenodd;stroke:#efefef;stroke-width:0;stroke-dasharray:none;stroke-opacity:1;paint-order:markers fill stroke"
         id="path12278-61"
         cx="280.70227"
         cy="185.11388"
         r="3.8769195" /><circle
         style="fill:#a05a2c;fill-opacity:1;fill-rule:evenodd;stroke:#efefef;stroke-width:0;stroke-dasharray:none;stroke-opacity:1;paint-order:markers fill stroke"
         id="path12278-4"
         cx="273.28482"
         cy="192.14433"
         r="3.5544214" /><ellipse
         style="fill:#a05a2c;fill-opacity:1;fill-rule:evenodd;stroke:#efefef;stroke-width:0;stroke-dasharray:none;stroke-opacity:1;paint-order:markers fill stroke"
         id="path12278-8"
         cx="304.8446"
         cy="154.97636"
         rx="6.9324322"
         ry="6.6587834" /><circle
         style="fill:#a05a2c;fill-opacity:1;fill-rule:evenodd;stroke:#efefef;stroke-width:0;stroke-dasharray:none;stroke-opacity:1;paint-order:markers fill stroke"
         id="path12278-54"
         cx="328.74326"
         cy="153.60811"
         r="8.3918915" /><ellipse
         style="fill:#a05a2c;fill-opacity:1;fill-rule:evenodd;stroke:#efefef;stroke-width:0;stroke-dasharray:none;stroke-opacity:1;paint-order:markers fill stroke"
         id="path12278-1"
         cx="313.96622"
         cy="169.2973"
         rx="5.8378377"
         ry="6.3851347" /><ellipse
         style="fill:#a05a2c;fill-opacity:1;fill-rule:evenodd;stroke:#efefef;stroke-width:0;stroke-dasharray:none;stroke-opacity:1;paint-order:markers fill stroke"
         id="path12278-1-5"
         cx="329.97998"
         cy="170.27896"
         rx="4.6768451"
         ry="4.8371444" /><ellipse
         style="fill:#a05a2c;fill-opacity:1;fill-rule:evenodd;stroke:#efefef;stroke-width:0;stroke-dasharray:none;stroke-opacity:1;paint-order:markers fill stroke"
         id="path12278-1-2"
         cx="328.10953"
         cy="181.63089"
         rx="3.3223534"
         ry="4.1921482" /><ellipse
         style="fill:#a05a2c;fill-opacity:1;fill-rule:evenodd;stroke:#efefef;stroke-width:0;stroke-dasharray:none;stroke-opacity:1;paint-order:markers fill stroke"
         id="path12278-1-8"
         cx="330.30249"
         cy="191.75732"
         rx="3.5803518"
         ry="3.8696504" /><ellipse
         style="fill:#a05a2c;fill-opacity:1;fill-rule:evenodd;stroke:#efefef;stroke-width:0;stroke-dasharray:none;stroke-opacity:1;paint-order:markers fill stroke"
         id="path12278-1-7"
         cx="327.30048"
         cy="200.07777"
         rx="2.7713423"
         ry="3.0311556" /><circle
         style="fill:#a05a2c;fill-opacity:1;fill-rule:evenodd;stroke:#efefef;stroke-width:0;stroke-dasharray:none;stroke-opacity:1;paint-order:markers fill stroke"
         id="path12278-9"
         cx="315.42569"
         cy="137.3716"
         r="8.3918915" /><ellipse
         style="fill:#a05a2c;fill-opacity:1;fill-rule:evenodd;stroke:#efefef;stroke-width:0;stroke-dasharray:none;stroke-opacity:1;paint-order:markers fill stroke"
         id="path12278-3"
         cx="333.85135"
         cy="133.72298"
         rx="6.9324322"
         ry="6.3851347" /><ellipse
         style="fill:#a05a2c;fill-opacity:1;fill-rule:evenodd;stroke:#efefef;stroke-width:0;stroke-dasharray:none;stroke-opacity:1;paint-order:markers fill stroke"
         id="path12278-94"
         cx="338.41217"
         cy="116.75675"
         rx="7.4797292"
         ry="6.5675673" /><ellipse
         style="fill:#a05a2c;fill-opacity:1;fill-rule:evenodd;stroke:#efefef;stroke-width:0;stroke-dasharray:none;stroke-opacity:1;paint-order:markers fill stroke"
         id="path12278-94-2"
         cx="352.64191"
         cy="103.62162"
         rx="5.655405"
         ry="5.8378377" /><ellipse
         style="fill:#a05a2c;fill-opacity:1;fill-rule:evenodd;stroke:#efefef;stroke-width:0;stroke-dasharray:none;stroke-opacity:1;paint-order:markers fill stroke"
         id="path12278-94-4"
         cx="356.83786"
         cy="85.560806"
         rx="5.4729729"
         ry="5.655405" /><path
         style="fill:#ffffff;fill-opacity:1;fill-rule:evenodd;stroke:#000000;stroke-width:1.0985;stroke-dasharray:none;stroke-opacity:1;paint-order:markers fill stroke"
         d="m 262.19107,198.13432 21.04736,0.63155 -1.35402,5.75403 -1.09931,12.63791 -0.3805,4.19775 1.47981,11.83409 1.47983,8.12756 1.60665,6.43059 4.27033,9.91384 -8.28698,1.563 -1.47981,-1.02711 c 0,0 0.67648,-1.78627 0.54964,-2.2775 -0.12686,-0.49123 -4.3549,-6.16266 -4.3549,-6.16266 l 0.12685,-11.2982 -1.90262,-9.24399 -1.90263,-10.53903 -2.70594,-6.25198 c 0,0 -1.73351,2.9027 -1.69123,3.5279 0.0423,0.6252 1.09929,5.98403 1.09929,6.4306 0,0.44657 -1.26841,16.56772 -1.26841,16.56772 l -0.16912,11.25355 3.84752,7.01113 -12.85326,0.9378 2.91735,-3.70652 -0.93017,-3.57256 -1.60666,-3.17064 2.28315,-26.92813 0.12684,-4.82295 -0.67649,-5.98404 -1.3107,-3.9298 c 0,0 0.67649,-3.97447 0.71877,-4.15309 0.0423,-0.17863 2.41936,-3.75082 2.41936,-3.75082 z"
         id="path12695" /><path
         style="fill:#ffffff;fill-opacity:1;fill-rule:evenodd;stroke:#000000;stroke-width:1.153;stroke-dasharray:none;stroke-opacity:1;paint-order:markers fill stroke"
         d="m 374.16892,60.567567 5.83783,1.824324 -2.73648,1.45946 z"
         id="path12751" /><path
         style="fill:#a05a2c;fill-opacity:1;fill-rule:evenodd;stroke:#000000;stroke-width:1.153;stroke-dasharray:none;stroke-opacity:1;paint-order:markers fill stroke"
         d="m 369.96974,56.759652 6.70796,-4.90197 h 7.22395 l -4.64397,4.385974 z"
         id="path12753" /><path
         style="fill:#a05a2c;fill-opacity:1;fill-rule:evenodd;stroke:#000000;stroke-width:1.153;stroke-dasharray:none;stroke-opacity:1;paint-order:markers fill stroke"
         d="m 382.09566,55.727658 2.57998,4.127976 4.12798,-2.837985 -3.86999,-3.353977 z"
         id="path12755" /><ellipse
         style="fill:#a05a2c;fill-opacity:1;fill-rule:evenodd;stroke:#000000;stroke-width:1.153;stroke-dasharray:none;stroke-opacity:1;paint-order:markers fill stroke"
         id="path12809"
         cx="390.60962"
         cy="78.81852"
         rx="1.805989"
         ry="1.9349881" /></g></g></svg>
